<?xml version="1.0" standalone="no"?>
<!DOCTYPE svg PUBLIC "-//W3C//DTD SVG 20010904//EN"
 "http://www.w3.org/TR/2001/REC-SVG-20010904/DTD/svg10.dtd">
<svg version="1.0" xmlns="http://www.w3.org/2000/svg"
 width="512.000000pt" height="512.000000pt" viewBox="0 0 512.000000 512.000000"
 preserveAspectRatio="xMidYMid meet">
<metadata>
Created by potrace 1.11, written by Peter Selinger 2001-2013
</metadata>
<g transform="translate(0.000000,512.000000) scale(0.100000,-0.100000)"
fill="#000000" stroke="none">
<path d="M2320 5110 c-502 -52 -982 -248 -1365 -557 -288 -232 -517 -518 -684
-854 -124 -249 -204 -502 -247 -784 -26 -169 -26 -541 0 -710 71 -465 260
-899 543 -1250 232 -288 518 -517 854 -684 249 -124 502 -204 784 -247 169
-26 541 -26 710 0 465 71 899 260 1250 543 288 232 517 518 684 854 124 249
204 502 247 784 26 169 26 541 0 710 -71 465 -260 899 -543 1250 -232 288
-518 517 -854 684 -246 123 -506 205 -779 246 -124 19 -478 28 -600 15z m-727
-1692 c16 -19 17 -72 17 -804 l0 -784 327 0 c376 0 363 3 363 -85 0 -28 -5
-56 -12 -63 -9 -9 -114 -12 -410 -12 -383 0 -398 1 -408 19 -16 31 -14 1712 3
1733 25 33 90 31 120 -4z m1167 6 c13 -13 16 -84 20 -476 l5 -462 322 460
c177 253 332 469 344 480 29 26 105 26 125 0 8 -11 14 -29 14 -40 0 -12 -108
-176 -240 -365 -132 -188 -240 -346 -240 -351 0 -4 126 -216 280 -471 154
-255 280 -473 280 -484 0 -12 -5 -26 -12 -33 -14 -14 -96 -16 -116 -3 -7 4
-129 196 -271 426 -142 231 -262 420 -267 422 -5 1 -57 -66 -116 -149 l-108
-151 0 -256 c0 -300 0 -301 -79 -301 -33 0 -53 5 -62 17 -20 24 -21 1712 -1
1736 25 29 93 30 122 1z"/>
</g>
</svg>
